# xmcd CD database file
#
# Track frame offsets:
#	150
#	15090
#	28401
#	45105
#	60144
#	74497
#	88220
#	102318
#	116217
#	135900
#	150392
#	165108
#	180376
#
# Disc length: 2586 seconds
#
# Revision: 0
# Processed by: cddbd v1.5.2PL0 Copyright (c) Steve Scherf et al.
# Submitted via: CDex 1.70
#
DISCID=8f0a180d
DTITLE=Nonstop R and J Country-Band - Get Back To The Roots
DYEAR=2006
DGENRE=Country
TTITLE0=Get Back To The Roots
TTITLE1=Turning Wheels
TTITLE2=Get A Part Of My Heart
TTITLE3=Living In Hellstone
TTITLE4=Much To Long
TTITLE5=One Minute Later
TTITLE6=When Rosemarie Is Dancing
TTITLE7=Everyone Of You
TTITLE8=Touch My Heart
TTITLE9=Country-Star
TTITLE10=Endless Road
TTITLE11=It Was You
TTITLE12=Don't Turn The Light On
EXTD=YEAR: 2006
EXTT0=
EXTT1=
EXTT2=
EXTT3=
EXTT4=
EXTT5=
EXTT6=
EXTT7=
EXTT8=
EXTT9=
EXTT10=
EXTT11=
EXTT12=
PLAYORDER=
